<?xml version="1.0" encoding="UTF-8"?>
<svg version="1.1" xmlns="http://www.w3.org/2000/svg" width="2362" height="2362">
<path d="M0 0 C1.43821325 -0.00174594 2.87642526 -0.00525127 4.31463051 -0.01035666 C8.25306613 -0.01927615 12.19106442 -0.00333505 16.12944436 0.01675558 C20.3815584 0.03406006 24.6336486 0.02818176 28.88578796 0.02514648 C36.24836043 0.02305101 43.61079089 0.03558076 50.97332764 0.05809784 C61.61824191 0.09063229 72.26308765 0.10102634 82.90804625 0.10604981 C100.17954044 0.11480019 117.45095898 0.14140881 134.72241211 0.17926025 C151.49812441 0.21598698 168.27381615 0.24429551 185.04956055 0.2612915 C186.60113906 0.26286784 186.60113906 0.26286784 188.1840626 0.26447603 C193.37337012 0.26969625 198.56267779 0.27475107 203.75198555 0.27972364 C246.78955821 0.32117769 289.82699092 0.39491125 332.86450195 0.48101807 C332.86450195 43.71101807 332.86450195 86.94101807 332.86450195 131.48101807 C269.83450195 131.48101807 206.80450195 131.48101807 141.86450195 131.48101807 C141.86450195 296.15101807 141.86450195 460.82101807 141.86450195 630.48101807 C204.89450195 630.48101807 267.92450195 630.48101807 332.86450195 630.48101807 C332.86450195 673.05101807 332.86450195 715.62101807 332.86450195 759.48101807 C226.60450195 759.48101807 120.34450195 759.48101807 10.86450195 759.48101807 C10.36950195 481.29101807 10.36950195 481.29101807 9.86450195 197.48101807 C7.10929335 200.23622667 6.13045335 201.71030611 4.67700195 205.16851807 C4.33282227 205.97676025 3.98864258 206.78500244 3.6340332 207.61773682 C3.38008789 208.23261963 3.12614258 208.84750244 2.86450195 209.48101807 C2.20450195 209.48101807 1.54450195 209.48101807 0.86450195 209.48101807 C0.57575195 210.22351807 0.28700195 210.96601807 -0.01049805 211.73101807 C-0.95852449 214.04841604 -1.98395716 216.26018921 -3.13549805 218.48101807 C-3.79549805 218.48101807 -4.45549805 218.48101807 -5.13549805 218.48101807 C-5.42424805 219.36789307 -5.71299805 220.25476807 -6.01049805 221.16851807 C-6.96698552 223.9848423 -8.00348751 226.73184962 -9.13549805 229.48101807 C-9.79549805 229.48101807 -10.45549805 229.48101807 -11.13549805 229.48101807 C-11.40362305 230.18226807 -11.67174805 230.88351807 -11.94799805 231.60601807 C-13.20364295 234.64600046 -14.63784928 237.55379547 -16.13549805 240.48101807 C-16.79549805 240.48101807 -17.45549805 240.48101807 -18.13549805 240.48101807 C-18.39202148 241.35371338 -18.64854492 242.22640869 -18.9128418 243.12554932 C-20.15537834 246.53557772 -21.68686876 249.15812204 -23.69799805 252.16851807 C-25.58117165 254.99915115 -27.05877963 257.25086281 -28.13549805 260.48101807 C-28.79549805 260.48101807 -29.45549805 260.48101807 -30.13549805 260.48101807 C-30.38170898 261.33179932 -30.62791992 262.18258057 -30.8815918 263.05914307 C-32.24001817 266.76625055 -34.07671939 269.9295647 -36.19799805 273.23101807 C-38.80587891 277.27588262 -38.80587891 277.27588262 -41.13549805 281.48101807 C-41.79549805 281.48101807 -42.45549805 281.48101807 -43.13549805 281.48101807 C-43.34045898 282.10750244 -43.54541992 282.73398682 -43.7565918 283.37945557 C-44.16071289 284.605354 -44.16071289 284.605354 -44.57299805 285.85601807 C-44.97325195 287.07418213 -44.97325195 287.07418213 -45.3815918 288.31695557 C-46.13549805 290.48101807 -46.13549805 290.48101807 -47.13549805 292.48101807 C-47.79549805 292.48101807 -48.45549805 292.48101807 -49.13549805 292.48101807 C-49.38686523 293.16422119 -49.63823242 293.84742432 -49.8972168 294.55133057 C-51.34119198 297.96767563 -53.09801202 301.14900119 -54.94799805 304.35601807 C-55.48094482 305.28692261 -55.48094482 305.28692261 -56.0246582 306.2366333 C-57.88511921 309.44958105 -59.80287375 312.55828282 -62.01049805 315.54351807 C-63.91304289 318.17350652 -65.11492124 320.41928765 -66.13549805 323.48101807 C-66.79549805 323.48101807 -67.45549805 323.48101807 -68.13549805 323.48101807 C-68.3778418 324.33308838 -68.62018555 325.18515869 -68.86987305 326.06304932 C-70.25519277 329.80426772 -72.16579623 332.89021751 -74.38549805 336.16851807 C-77.76242361 341.28019807 -80.83992915 346.45078026 -83.7253418 351.85992432 C-85.23137018 354.65921807 -86.78647093 357.42127388 -88.38549805 360.16851807 C-88.8650293 360.99738525 -89.34456055 361.82625244 -89.83862305 362.68023682 C-90.2665918 363.27449463 -90.69456055 363.86875244 -91.13549805 364.48101807 C-91.79549805 364.48101807 -92.45549805 364.48101807 -93.13549805 364.48101807 C-93.3778418 365.32277588 -93.62018555 366.16453369 -93.86987305 367.03179932 C-95.28429184 370.88652707 -97.22053517 374.20628321 -99.38549805 377.66851807 C-103.17033452 383.83773261 -106.74443755 390.08454709 -110.13549805 396.48101807 C-110.79549805 396.48101807 -111.45549805 396.48101807 -112.13549805 396.48101807 C-112.44487305 397.68758057 -112.44487305 397.68758057 -112.76049805 398.91851807 C-114.27011496 402.82979824 -116.2762157 405.83837458 -118.69799805 409.23492432 C-120.1955637 411.57487064 -121.18360335 413.87703689 -122.13549805 416.48101807 C-122.79549805 416.48101807 -123.45549805 416.48101807 -124.13549805 416.48101807 C-124.40362305 417.36789307 -124.67174805 418.25476807 -124.94799805 419.16851807 C-126.06056155 422.27198467 -127.23745582 424.79212492 -129.13549805 427.48101807 C-129.79549805 427.48101807 -130.45549805 427.48101807 -131.13549805 427.48101807 C-131.38041992 428.31890869 -131.6253418 429.15679932 -131.87768555 430.02008057 C-133.29695905 433.92528654 -135.1540757 437.29073078 -137.26049805 440.85601807 C-137.63303711 441.49668213 -138.00557617 442.13734619 -138.3894043 442.79742432 C-139.29983806 444.36150284 -140.21697996 445.9216734 -141.13549805 447.48101807 C-141.79549805 447.48101807 -142.45549805 447.48101807 -143.13549805 447.48101807 C-143.79549805 449.46101807 -144.45549805 451.44101807 -145.13549805 453.48101807 C-148.60049805 458.92601807 -148.60049805 458.92601807 -152.13549805 464.48101807 C-119.46549805 464.81101807 -86.79549805 465.14101807 -53.13549805 465.48101807 C-53.13549805 501.45101807 -53.13549805 537.42101807 -53.13549805 574.48101807 C-135.30549805 574.97601807 -135.30549805 574.97601807 -219.13549805 575.48101807 C-220.45549805 578.12101807 -221.77549805 580.76101807 -223.13549805 583.48101807 C-224.15167039 585.32860415 -225.18968244 587.16455599 -226.26049805 588.98101807 C-226.75807617 589.83695557 -227.2556543 590.69289307 -227.76831055 591.57476807 C-228.21948242 592.20383057 -228.6706543 592.83289307 -229.13549805 593.48101807 C-229.79549805 593.48101807 -230.45549805 593.48101807 -231.13549805 593.48101807 C-231.4912793 594.72431885 -231.4912793 594.72431885 -231.85424805 595.99273682 C-233.35862166 600.08848571 -235.36872852 603.58195454 -237.63549805 607.29351807 C-238.03897461 607.97349854 -238.44245117 608.653479 -238.8581543 609.35406494 C-241.87800921 614.35227365 -241.87800921 614.35227365 -244.13549805 615.48101807 C-244.84176044 617.46738104 -245.50443376 619.46950065 -246.13549805 621.48101807 C-246.77365149 622.82823089 -247.42875176 624.16848925 -248.13549805 625.48101807 C-248.79549805 625.48101807 -249.45549805 625.48101807 -250.13549805 625.48101807 C-250.42424805 626.20289307 -250.71299805 626.92476807 -251.01049805 627.66851807 C-251.38174805 628.59664307 -251.75299805 629.52476807 -252.13549805 630.48101807 C-252.44487305 631.34726807 -252.75424805 632.21351807 -253.07299805 633.10601807 C-254.13549805 635.48101807 -254.13549805 635.48101807 -255.57299805 636.85601807 C-257.97559448 639.35471836 -258.86381755 642.27153873 -260.13549805 645.48101807 C-260.79549805 645.48101807 -261.45549805 645.48101807 -262.13549805 645.48101807 C-262.38170898 646.15906494 -262.62791992 646.83711182 -262.8815918 647.53570557 C-264.38233579 651.06081762 -266.25896486 654.31070228 -268.19799805 657.60601807 C-271.02065244 662.37135704 -271.02065244 662.37135704 -273.13549805 667.48101807 C-273.79549805 667.48101807 -274.45549805 667.48101807 -275.13549805 667.48101807 C-275.42424805 668.22351807 -275.71299805 668.96601807 -276.01049805 669.73101807 C-276.95852449 672.04841604 -277.98395716 674.26018921 -279.13549805 676.48101807 C-279.79549805 676.48101807 -280.45549805 676.48101807 -281.13549805 676.48101807 C-281.36624023 677.31117432 -281.59698242 678.14133057 -281.8347168 678.99664307 C-283.38530862 683.15018032 -285.53173935 686.53629221 -287.94799805 690.23101807 C-291.74016537 696.14783618 -295.21068557 702.07721812 -298.13549805 708.48101807 C-298.79549805 708.48101807 -299.45549805 708.48101807 -300.13549805 708.48101807 C-300.39202148 709.17968994 -300.64854492 709.87836182 -300.9128418 710.59820557 C-302.26529441 713.7870555 -303.91581325 716.63695028 -305.69799805 719.60601807 C-307.48862866 722.59164333 -309.03432777 725.17750723 -310.13549805 728.48101807 C-310.79549805 728.48101807 -311.45549805 728.48101807 -312.13549805 728.48101807 C-312.40362305 729.18226807 -312.67174805 729.88351807 -312.94799805 730.60601807 C-314.20364295 733.64600046 -315.63784928 736.55379547 -317.13549805 739.48101807 C-317.79549805 739.48101807 -318.45549805 739.48101807 -319.13549805 739.48101807 C-319.38170898 740.33051025 -319.62791992 741.18000244 -319.8815918 742.05523682 C-321.24395239 745.77732479 -323.07998072 748.9706179 -325.19799805 752.29351807 C-325.5621582 752.87810791 -325.92631836 753.46269775 -326.30151367 754.06500244 C-328.9595227 758.30504272 -328.9595227 758.30504272 -330.13549805 759.48101807 C-332.22377126 759.57787125 -334.31538166 759.60288688 -336.40589905 759.60127258 C-337.06828896 759.60212701 -337.73067886 759.60298143 -338.41314119 759.60386175 C-340.64882675 759.60551839 -342.88443846 759.59999221 -345.12011719 759.59454346 C-346.71630349 759.5942616 -348.31248992 759.59441929 -349.90867615 759.59498596 C-354.25559699 759.59527399 -358.60249049 759.58937641 -362.94940495 759.582412 C-367.48713751 759.57617934 -372.02487063 759.57557474 -376.56260681 759.5743866 C-385.16157645 759.57127302 -393.76053343 759.56305928 -402.35949749 759.55303711 C-412.14651533 759.54187678 -421.93353376 759.53636572 -431.72055638 759.53134167 C-451.85887734 759.52087669 -471.9971869 759.50327674 -492.13549805 759.48101807 C-491.29765376 755.08944934 -489.96948433 751.5476833 -488.13549805 747.48101807 C-487.47549805 747.48101807 -486.81549805 747.48101807 -486.13549805 747.48101807 C-484.61250282 744.54381299 -483.33449503 741.56415317 -482.13549805 738.48101807 C-481.47549805 738.48101807 -480.81549805 738.48101807 -480.13549805 738.48101807 C-479.86737305 737.61476807 -479.59924805 736.74851807 -479.32299805 735.85601807 C-477.59196509 730.93624018 -475.80829613 727.15381615 -472.13549805 723.48101807 C-471.0892693 721.50480821 -470.08109869 719.50730517 -469.13549805 717.48101807 C-468.47549805 717.48101807 -467.81549805 717.48101807 -467.13549805 717.48101807 C-466.84674805 716.59414307 -466.55799805 715.70726807 -466.26049805 714.79351807 C-463.5926409 706.93816092 -463.5926409 706.93816092 -460.13549805 703.48101807 C-459.0892693 701.50480821 -458.08109869 699.50730517 -457.13549805 697.48101807 C-456.47549805 697.48101807 -455.81549805 697.48101807 -455.13549805 697.48101807 C-454.86737305 696.61476807 -454.59924805 695.74851807 -454.32299805 694.85601807 C-453.16437817 691.56309843 -451.75339966 688.56973932 -450.13549805 685.48101807 C-449.47549805 685.48101807 -448.81549805 685.48101807 -448.13549805 685.48101807 C-447.87897461 684.78234619 -447.62245117 684.08367432 -447.3581543 683.36383057 C-446.00570168 680.17498063 -444.35518285 677.32508586 -442.57299805 674.35601807 C-440.78236743 671.3703928 -439.23666832 668.7845289 -438.13549805 665.48101807 C-437.47549805 665.48101807 -436.81549805 665.48101807 -436.13549805 665.48101807 C-435.84795654 664.90359863 -435.56041504 664.3261792 -435.26416016 663.73126221 C-433.44643287 660.10721022 -431.57513885 656.51207517 -429.69799805 652.91851807 C-429.30290039 652.15088135 -428.90780273 651.38324463 -428.50073242 650.59234619 C-428.11336914 649.85306885 -427.72600586 649.1137915 -427.3269043 648.35211182 C-426.97829346 647.68107422 -426.62968262 647.01003662 -426.27050781 646.31866455 C-425.08539265 644.39989453 -423.73008508 643.06341042 -422.13549805 641.48101807 C-421.0892693 639.50480821 -420.08109869 637.50730517 -419.13549805 635.48101807 C-418.47549805 635.48101807 -417.81549805 635.48101807 -417.13549805 635.48101807 C-416.75458008 634.18357666 -416.75458008 634.18357666 -416.3659668 632.85992432 C-415.08366152 629.33867331 -413.47328811 626.56587453 -411.44799805 623.41851807 C-407.34007694 616.93867116 -403.69467563 610.27682276 -400.13549805 603.48101807 C-399.47549805 603.48101807 -398.81549805 603.48101807 -398.13549805 603.48101807 C-397.84674805 602.73851807 -397.55799805 601.99601807 -397.26049805 601.23101807 C-396.3124716 598.9136201 -395.28703893 596.70184692 -394.13549805 594.48101807 C-393.47549805 594.48101807 -392.81549805 594.48101807 -392.13549805 594.48101807 C-391.88413086 593.62250244 -391.63276367 592.76398682 -391.3737793 591.87945557 C-390.05690815 588.26532971 -388.37882297 585.35288496 -386.32299805 582.10601807 C-385.9677002 581.5394751 -385.61240234 580.97293213 -385.24633789 580.38922119 C-383.70135004 577.92902265 -382.13608191 575.48192953 -380.5690918 573.03570557 C-378.80312544 570.2628748 -377.2349917 567.7297522 -376.01049805 564.66851807 C-375.04831657 562.26306439 -373.94619152 561.29171154 -372.13549805 559.48101807 C-371.0892693 557.50480821 -370.08109869 555.50730517 -369.13549805 553.48101807 C-368.47549805 553.48101807 -367.81549805 553.48101807 -367.13549805 553.48101807 C-366.90475586 552.65086182 -366.67401367 551.82070557 -366.4362793 550.96539307 C-364.88568748 546.81185582 -362.73925674 543.42574392 -360.32299805 539.73101807 C-356.53083072 533.81419995 -353.06031052 527.88481801 -350.13549805 521.48101807 C-349.47549805 521.48101807 -348.81549805 521.48101807 -348.13549805 521.48101807 C-347.84674805 520.73851807 -347.55799805 519.99601807 -347.26049805 519.23101807 C-346.3124716 516.9136201 -345.28703893 514.70184692 -344.13549805 512.48101807 C-343.47549805 512.48101807 -342.81549805 512.48101807 -342.13549805 512.48101807 C-341.88928711 511.63023682 -341.64307617 510.77945557 -341.3894043 509.90289307 C-340.03097792 506.19578558 -338.19427671 503.03247143 -336.07299805 499.73101807 C-333.46511719 495.68615352 -333.46511719 495.68615352 -331.13549805 491.48101807 C-330.47549805 491.48101807 -329.81549805 491.48101807 -329.13549805 491.48101807 C-328.84674805 490.59414307 -328.55799805 489.70726807 -328.26049805 488.79351807 C-325.5926409 480.93816092 -325.5926409 480.93816092 -322.13549805 477.48101807 C-321.0892693 475.50480821 -320.08109869 473.50730517 -319.13549805 471.48101807 C-318.47549805 471.48101807 -317.81549805 471.48101807 -317.13549805 471.48101807 C-316.86737305 470.61476807 -316.59924805 469.74851807 -316.32299805 468.85601807 C-315.16437817 465.56309843 -313.75339966 462.56973932 -312.13549805 459.48101807 C-311.47549805 459.48101807 -310.81549805 459.48101807 -310.13549805 459.48101807 C-309.87897461 458.78234619 -309.62245117 458.08367432 -309.3581543 457.36383057 C-308.00570168 454.17498063 -306.35518285 451.32508586 -304.57299805 448.35601807 C-302.78236743 445.3703928 -301.23666832 442.7845289 -300.13549805 439.48101807 C-299.47549805 439.48101807 -298.81549805 439.48101807 -298.13549805 439.48101807 C-297.84674805 438.73851807 -297.55799805 437.99601807 -297.26049805 437.23101807 C-296.3124716 434.9136201 -295.28703893 432.70184692 -294.13549805 430.48101807 C-293.47549805 430.48101807 -292.81549805 430.48101807 -292.13549805 430.48101807 C-291.86737305 429.61476807 -291.59924805 428.74851807 -291.32299805 427.85601807 C-290.16437817 424.56309843 -288.75339966 421.56973932 -287.13549805 418.48101807 C-286.47549805 418.48101807 -285.81549805 418.48101807 -285.13549805 418.48101807 C-284.84674805 417.73851807 -284.55799805 416.99601807 -284.26049805 416.23101807 C-283.3124716 413.9136201 -282.28703893 411.70184692 -281.13549805 409.48101807 C-280.47549805 409.48101807 -279.81549805 409.48101807 -279.13549805 409.48101807 C-278.91635742 408.67406494 -278.6972168 407.86711182 -278.47143555 407.03570557 C-276.76841931 402.5042881 -274.34598986 398.68156964 -271.76049805 394.60601807 C-268.23413869 389.01475844 -265.00074633 383.44236401 -262.13549805 377.48101807 C-261.47549805 377.48101807 -260.81549805 377.48101807 -260.13549805 377.48101807 C-259.84674805 376.73851807 -259.55799805 375.99601807 -259.26049805 375.23101807 C-258.3124716 372.9136201 -257.28703893 370.70184692 -256.13549805 368.48101807 C-255.47549805 368.48101807 -254.81549805 368.48101807 -254.13549805 368.48101807 C-253.87639648 367.60574463 -253.61729492 366.73047119 -253.3503418 365.82867432 C-252.133586 362.47574917 -250.66070144 359.88578793 -248.69799805 356.91851807 C-244.82488003 351.02100575 -241.43930622 345.16020324 -238.41674805 338.78570557 C-237.18425976 336.56872969 -235.9441595 335.22142815 -234.13549805 333.48101807 C-233.0892693 331.50480821 -232.08109869 329.50730517 -231.13549805 327.48101807 C-230.47549805 327.48101807 -229.81549805 327.48101807 -229.13549805 327.48101807 C-228.88541992 326.62508057 -228.6353418 325.76914307 -228.37768555 324.88726807 C-227.04474138 321.23215073 -225.33479316 318.26858014 -223.26049805 314.98101807 C-222.24342773 313.35679932 -222.24342773 313.35679932 -221.20581055 311.69976807 C-219.82616814 309.5548146 -218.41971749 307.42686851 -216.98706055 305.31695557 C-215.52382176 303.07579235 -214.37244331 301.07338122 -213.38549805 298.60601807 C-212.97299805 297.57476807 -212.56049805 296.54351807 -212.13549805 295.48101807 C-211.47549805 295.48101807 -210.81549805 295.48101807 -210.13549805 295.48101807 C-209.84674805 294.73851807 -209.55799805 293.99601807 -209.26049805 293.23101807 C-208.3124716 290.9136201 -207.28703893 288.70184692 -206.13549805 286.48101807 C-205.47549805 286.48101807 -204.81549805 286.48101807 -204.13549805 286.48101807 C-203.88928711 285.63023682 -203.64307617 284.77945557 -203.3894043 283.90289307 C-202.03097792 280.19578558 -200.19427671 277.03247143 -198.07299805 273.73101807 C-195.46511719 269.68615352 -195.46511719 269.68615352 -193.13549805 265.48101807 C-192.47549805 265.48101807 -191.81549805 265.48101807 -191.13549805 265.48101807 C-190.84674805 264.59414307 -190.55799805 263.70726807 -190.26049805 262.79351807 C-189.30401057 259.97719383 -188.26750858 257.23018651 -187.13549805 254.48101807 C-186.47549805 254.48101807 -185.81549805 254.48101807 -185.13549805 254.48101807 C-184.84674805 253.73851807 -184.55799805 252.99601807 -184.26049805 252.23101807 C-183.3124716 249.9136201 -182.28703893 247.70184692 -181.13549805 245.48101807 C-180.47549805 245.48101807 -179.81549805 245.48101807 -179.13549805 245.48101807 C-178.8828418 244.61992432 -178.63018555 243.75883057 -178.36987305 242.87164307 C-177.06894998 239.29822147 -175.42302151 236.43735344 -173.38549805 233.23101807 C-172.67025731 232.0932467 -171.95541804 230.95522285 -171.2409668 229.81695557 C-170.54616211 228.71609619 -169.85135742 227.61523682 -169.13549805 226.48101807 C-167.98288349 224.61017903 -166.83624136 222.73563536 -165.69799805 220.85601807 C-165.22491211 220.08000244 -164.75182617 219.30398682 -164.2644043 218.50445557 C-163.00083166 216.38711655 -163.00083166 216.38711655 -162.13549805 213.48101807 C-161.47549805 213.48101807 -160.81549805 213.48101807 -160.13549805 213.48101807 C-159.84674805 212.73851807 -159.55799805 211.99601807 -159.26049805 211.23101807 C-158.3124716 208.9136201 -157.28703893 206.70184692 -156.13549805 204.48101807 C-155.47549805 204.48101807 -154.81549805 204.48101807 -154.13549805 204.48101807 C-153.86737305 203.61476807 -153.59924805 202.74851807 -153.32299805 201.85601807 C-152.16437817 198.56309843 -150.75339966 195.56973932 -149.13549805 192.48101807 C-148.47549805 192.48101807 -147.81549805 192.48101807 -147.13549805 192.48101807 C-146.84674805 191.73851807 -146.55799805 190.99601807 -146.26049805 190.23101807 C-145.3124716 187.9136201 -144.28703893 185.70184692 -143.13549805 183.48101807 C-142.47549805 183.48101807 -141.81549805 183.48101807 -141.13549805 183.48101807 C-140.84674805 182.59414307 -140.55799805 181.70726807 -140.26049805 180.79351807 C-139.30401057 177.97719383 -138.26750858 175.23018651 -137.13549805 172.48101807 C-136.47549805 172.48101807 -135.81549805 172.48101807 -135.13549805 172.48101807 C-134.84674805 171.73851807 -134.55799805 170.99601807 -134.26049805 170.23101807 C-133.3124716 167.9136201 -132.28703893 165.70184692 -131.13549805 163.48101807 C-130.47549805 163.48101807 -129.81549805 163.48101807 -129.13549805 163.48101807 C-128.86737305 162.61476807 -128.59924805 161.74851807 -128.32299805 160.85601807 C-127.16437817 157.56309843 -125.75339966 154.56973932 -124.13549805 151.48101807 C-123.47549805 151.48101807 -122.81549805 151.48101807 -122.13549805 151.48101807 C-121.84674805 150.73851807 -121.55799805 149.99601807 -121.26049805 149.23101807 C-120.3124716 146.9136201 -119.28703893 144.70184692 -118.13549805 142.48101807 C-117.47549805 142.48101807 -116.81549805 142.48101807 -116.13549805 142.48101807 C-115.89057617 141.64312744 -115.6456543 140.80523682 -115.39331055 139.94195557 C-113.97403704 136.0367496 -112.11692039 132.67130535 -110.01049805 129.10601807 C-109.63795898 128.465354 -109.26541992 127.82468994 -108.8815918 127.16461182 C-107.97115803 125.6005333 -107.05401614 124.04036273 -106.13549805 122.48101807 C-105.47549805 122.48101807 -104.81549805 122.48101807 -104.13549805 122.48101807 C-103.73331055 121.18164307 -103.73331055 121.18164307 -103.32299805 119.85601807 C-102.16437817 116.56309843 -100.75339966 113.56973932 -99.13549805 110.48101807 C-98.47549805 110.48101807 -97.81549805 110.48101807 -97.13549805 110.48101807 C-96.84674805 109.73851807 -96.55799805 108.99601807 -96.26049805 108.23101807 C-95.3124716 105.9136201 -94.28703893 103.70184692 -93.13549805 101.48101807 C-92.47549805 101.48101807 -91.81549805 101.48101807 -91.13549805 101.48101807 C-90.7468457 100.16810791 -90.7468457 100.16810791 -90.3503418 98.82867432 C-89.133586 95.47574917 -87.66070144 92.88578793 -85.69799805 89.91851807 C-82.32540611 84.7831459 -79.16829527 79.68263406 -76.44799805 74.16851807 C-76.01100586 73.28551025 -75.57401367 72.40250244 -75.1237793 71.49273682 C-74.79764648 70.82886963 -74.47151367 70.16500244 -74.13549805 69.48101807 C-73.47549805 69.48101807 -72.81549805 69.48101807 -72.13549805 69.48101807 C-71.84674805 68.73851807 -71.55799805 67.99601807 -71.26049805 67.23101807 C-70.3124716 64.9136201 -69.28703893 62.70184692 -68.13549805 60.48101807 C-67.47549805 60.48101807 -66.81549805 60.48101807 -66.13549805 60.48101807 C-65.7797168 59.23965088 -65.7797168 59.23965088 -65.41674805 57.97320557 C-63.90842961 53.86211811 -61.89949683 50.33836112 -59.63549805 46.60601807 C-59.23202148 45.91765869 -58.82854492 45.22929932 -58.4128418 44.52008057 C-57.38044656 42.80282909 -56.26438377 41.13643631 -55.13549805 39.48101807 C-54.47549805 39.48101807 -53.81549805 39.48101807 -53.13549805 39.48101807 C-52.84674805 38.57351807 -52.55799805 37.66601807 -52.26049805 36.73101807 C-50.5489702 31.78660429 -48.88113733 29.12542385 -45.13549805 25.48101807 C-43.98139567 24.17578323 -42.83634531 22.86251609 -41.69799805 21.54351807 C-29.73311041 7.8657623 -18.36087596 -0.1659802 0 0 Z " fill="#FFFFFF" transform="translate(1029.135498046875,800.5189819335938)"/>
<path d="M0 0 C14.625 1.125 14.625 1.125 20.39453125 1.97265625 C21.61591797 2.14990234 22.83730469 2.32714844 24.09570312 2.50976562 C25.32224609 2.69216797 26.54878906 2.87457031 27.8125 3.0625 C29.08931641 3.24876953 30.36613281 3.43503906 31.68164062 3.62695312 C34.78835368 4.08074267 37.89442795 4.53847793 41 5 C41 5.66 41 6.32 41 7 C41.82757812 6.96261719 42.65515625 6.92523437 43.5078125 6.88671875 C47.46765019 7.01516986 51.06597301 7.81152209 54.875 8.8125 C55.58970459 8.99554687 56.30440918 9.17859375 57.04077148 9.3671875 C61.08038435 10.4240925 64.95008897 11.62851204 68.8046875 13.21875 C73.25954653 14.80410909 77.92221403 15.81239159 82.51171875 16.9375 C85.79880618 17.93871812 88.1092582 19.19804088 91 21 C92.75110629 21.62119537 94.52328877 22.18652085 96.3125 22.6875 C97.19550781 22.93886719 98.07851562 23.19023438 98.98828125 23.44921875 C99.65214844 23.63097656 100.31601563 23.81273437 101 24 C101 24.66 101 25.32 101 26 C101.58007812 26.12117187 102.16015625 26.24234375 102.7578125 26.3671875 C107.28028442 27.33735474 111.63750966 28.43397783 116 30 C116 30.66 116 31.32 116 32 C116.56517334 32.12294434 117.13034668 32.24588867 117.71264648 32.37255859 C122.04542355 33.56107787 126.01830455 35.69520011 130.0625 37.625 C131.01189453 38.07794434 131.96128906 38.53088867 132.93945312 38.99755859 C138.68273844 41.77755308 144.16292128 44.70805492 149.45703125 48.28515625 C151.91840602 49.94497733 154.43089099 51.49496519 156.97265625 53.02807617 C161.92296039 56.01418646 166.68789962 59.08199311 171.21875 62.67578125 C173.03613318 64.07801557 173.03613318 64.07801557 175.296875 65.33984375 C178.65889778 67.40466988 181.67184046 69.78898477 184.75 72.25 C185.99326814 73.23725809 187.23675777 74.22423733 188.48046875 75.2109375 C189.08165527 75.68885742 189.6828418 76.16677734 190.30224609 76.65917969 C192.53617234 78.42344815 194.79949394 80.14826932 197.0625 81.875 C200.29331258 84.38125535 203.14228954 87.06901491 206 90 C207.32537887 91.17569543 208.65942421 92.34166264 210 93.5 C216.54252087 99.1896783 222.24409631 105.52957034 228 112 C228.62390625 112.69609375 229.2478125 113.3921875 229.890625 114.109375 C233.56216133 118.24398798 236.9961725 122.50566088 240.32421875 126.921875 C241.97535891 129.05054899 241.97535891 129.05054899 243.9921875 130.9609375 C246.12271525 133.12462521 247.74094869 135.35955903 249.4375 137.875 C251.43283518 140.78895844 253.42337667 143.59301021 255.75 146.25 C258.32963014 149.40288128 261 152.78124946 261 157 C261.66 157 262.32 157 263 157 C263.30292969 157.556875 263.60585937 158.11375 263.91796875 158.6875 C265.97813615 162.44017415 268.05878992 166.14871656 270.375 169.75 C272.67225973 173.37570705 274.76238628 177.10560282 276.8125 180.875 C277.41707031 181.98617187 278.02164062 183.09734375 278.64453125 184.2421875 C280 187 280 187 280 189 C280.66 189 281.32 189 282 189 C282.67057887 190.7902061 283.3363469 192.58221489 284 194.375 C284.37125 195.37273437 284.7425 196.37046875 285.125 197.3984375 C286 200 286 200 286 202 C286.66 202 287.32 202 288 202 C288.38671875 202.96679688 288.7734375 203.93359375 289.171875 204.9296875 C289.54759644 205.86844727 289.54759644 205.86844727 289.9309082 206.82617188 C290.47993162 208.1994668 291.0279354 209.57316977 291.57495117 210.94726562 C292.77859714 213.96756817 293.99163069 216.98013268 295.25390625 219.9765625 C297.24063976 224.712466 298.55415094 228.8727358 299 234 C299.66 234 300.32 234 301 234 C301.33773438 235.09699219 301.67546875 236.19398438 302.0234375 237.32421875 C302.47385102 238.77867907 302.92437784 240.23310431 303.375 241.6875 C303.59671875 242.40873047 303.8184375 243.12996094 304.046875 243.87304688 C304.9504128 246.78297007 305.84009722 249.626092 307.0390625 252.4296875 C308.49686298 256.32900748 309.19648024 260.36026497 310 264.4375 C311.2285699 270.79016825 311.2285699 270.79016825 313.03515625 276.9921875 C314.623636 281.94412843 315.09625497 287.07263427 315.76757812 292.21679688 C316.39600816 296.74079871 317.23952147 301.02449319 318.52734375 305.41015625 C320.16458841 311.17270983 320.73453612 316.78711311 321.125 322.75 C321.20282715 323.83418213 321.2806543 324.91836426 321.36083984 326.03540039 C321.59108501 329.35609557 321.8004103 332.6773304 322 336 C322.05929687 336.98145996 322.11859375 337.96291992 322.1796875 338.97412109 C323.75869595 366.40469345 322.89706936 393.68232313 321.12335205 421.0758667 C321.01421966 422.7781916 320.91437248 424.48110621 320.81591797 426.18408203 C320.42291544 431.74620054 319.33534486 436.73124715 317.77099609 442.07666016 C316.33247191 447.5310264 315.61722451 453.11079043 314.8125 458.6875 C314.63525391 459.87794922 314.45800781 461.06839844 314.27539062 462.29492188 C313.84433717 465.19579509 313.4193232 468.09741212 313 471 C312.34 471 311.68 471 311 471 C310.96261719 471.55945312 310.92523437 472.11890625 310.88671875 472.6953125 C310.07360868 482.61206666 308.50349149 492.08659607 304 501 C303.37683024 503.10800633 302.81199345 505.23431377 302.3125 507.375 C302.06113281 508.43460938 301.80976562 509.49421875 301.55078125 510.5859375 C301.36902344 511.38257813 301.18726563 512.17921875 301 513 C300.34 513 299.68 513 299 513 C298.83564453 513.94359375 298.83564453 513.94359375 298.66796875 514.90625 C297.1380042 523.16557081 294.36563336 530.25705766 290.91796875 537.87890625 C289.76899277 540.53377416 288.85036443 543.2363156 288 546 C287.34 546 286.68 546 286 546 C285.76216797 547.051875 285.76216797 547.051875 285.51953125 548.125 C284.11388782 553.84076555 282.46214718 558.41120925 279.140625 563.2734375 C277.73621121 565.39929673 276.82644593 567.59579365 276 570 C275.34 570 274.68 570 274 570 C273.896875 570.680625 273.79375 571.36125 273.6875 572.0625 C272.85274981 575.62915989 271.50527246 578.66222194 270 582 C269.34 582 268.68 582 268 582 C267.731875 582.70125 267.46375 583.4025 267.1875 584.125 C265.9318551 587.1649824 264.49764877 590.0727774 263 593 C262.34 593 261.68 593 261 593 C260.71125 593.9075 260.4225 594.815 260.125 595.75 C258.41228777 600.69783534 256.6930974 603.3069026 253 607 C251.76487921 609.13309192 251.76487921 609.13309192 251 611 C250.34 611 249.68 611 249 611 C248.76925781 611.69351563 248.53851562 612.38703125 248.30078125 613.1015625 C246.73059424 616.60029751 244.56547155 619.40329676 242.1875 622.375 C241.28026282 623.52786967 240.37400184 624.68150826 239.46875 625.8359375 C239.03820313 626.3834668 238.60765625 626.93099609 238.1640625 627.49511719 C236.77643223 629.28902511 235.47187846 631.13106468 234.1875 633 C231.99202051 636.0109433 229.66339313 638.39713853 227 641 C225.49195949 642.65939495 223.99274905 644.32683592 222.5 646 C215.87132353 653.38970588 215.87132353 653.38970588 213 656 C212.34 656 211.68 656 211 656 C210.79375 656.556875 210.5875 657.11375 210.375 657.6875 C208.82627083 660.29218088 206.92390656 661.85369817 204.56640625 663.72265625 C202.80436667 665.11557426 202.80436667 665.11557426 200.625 667.375 C197.81806068 670.18193932 194.87556158 672.76459491 191.8671875 675.3515625 C190.174745 676.84572721 188.59341432 678.40235912 187 680 C176.8984375 689 176.8984375 689 173 689 C172.67 689.99 172.34 690.98 172 692 C161.96875 701 161.96875 701 157 701 C157 701.66 157 702.32 157 703 C155.3046875 704.2265625 155.3046875 704.2265625 152.875 705.625 C151.95976563 706.15609375 151.04453125 706.6871875 150.1015625 707.234375 C149.07804687 707.81703125 148.05453125 708.3996875 147 709 C145.91460938 709.62390625 144.82921875 710.2478125 143.7109375 710.890625 C141.35468216 712.24161564 138.99578395 713.58670068 136.6328125 714.92578125 C134.2584349 716.27413838 131.90084644 717.64612655 129.5546875 719.04296875 C122.07590875 723.44675988 114.55028787 727.09385689 106.56640625 730.46875 C103.82901782 731.64405807 101.19666573 732.86745576 98.5625 734.25 C93.62957647 736.67319051 88.55690779 739 83 739 C83 739.66 83 740.32 83 741 C81.89591797 741.27263672 81.89591797 741.27263672 80.76953125 741.55078125 C79.30580078 741.92783203 79.30580078 741.92783203 77.8125 742.3125 C76.36810547 742.67794922 76.36810547 742.67794922 74.89453125 743.05078125 C72.0066359 743.85938388 72.0066359 743.85938388 69.7890625 745.4453125 C65.62044044 747.76899819 61.19873419 748.54682188 56.5625 749.5625 C49.64587224 751.07174514 49.64587224 751.07174514 42.859375 753.05859375 C39.18234436 754.26920083 35.50149113 754.87781755 31.6875 755.5 C27.17945319 756.25333662 22.73318546 757.01143085 18.3125 758.1875 C12.30796938 759.31878838 6.11017196 759 0 759 C0 713.79 0 668.58 0 622 C2.97 621.34 5.94 620.68 9 620 C9.928125 619.690625 10.85625 619.38125 11.8125 619.0625 C14.74439123 618.08520292 17.61638896 617.38209503 20.625 616.6875 C26.10692771 615.35792798 31.08218451 613.41718886 36.2109375 611.0859375 C39.1453437 609.94340959 41.88573508 609.413398 45 609 C45 608.34 45 607.68 45 607 C46.7902061 606.32942113 48.58221489 605.6636531 50.375 605 C51.37273437 604.62875 52.37046875 604.2575 53.3984375 603.875 C56 603 56 603 58 603 C58 602.34 58 601.68 58 601 C58.80824219 600.60167969 59.61648438 600.20335937 60.44921875 599.79296875 C61.51785156 599.26316406 62.58648438 598.73335937 63.6875 598.1875 C65.27111328 597.40439453 65.27111328 597.40439453 66.88671875 596.60546875 C71.74451001 594.10038442 76.11130717 591.25453625 80.5 588 C83.91374994 585.4684551 87.34252642 583.16208404 91 581 C92.0828125 580.1646875 92.0828125 580.1646875 93.1875 579.3125 C95 578 95 578 97 578 C97.33 577.01 97.66 576.02 98 575 C99.33333333 574.33333333 100.66666667 573.66666667 102 573 C103.68997323 571.35697047 105.35216394 569.68528688 107 568 C108.96054518 566.25862146 110.94430676 564.54760874 112.9375 562.84375 C117.7033823 558.58334007 121.91424743 553.90995489 126.0625 549.0625 C126.57876953 548.46759766 127.09503906 547.87269531 127.62695312 547.25976562 C130.7194436 543.65514297 133.41408967 539.98148098 136 536 C137 535 138 534 139 533 C142.18360614 528.4990396 144.90609508 523.76597807 147.6328125 518.9765625 C148.08398438 518.32429688 148.53515625 517.67203125 149 517 C149.66 517 150.32 517 151 517 C151.33 515.824375 151.66 514.64875 152 513.4375 C153.51111844 508.85353306 155.62628363 504.7774441 157.9375 500.5625 C161.07437092 494.82915837 163.73790521 489.13997157 166 483 C166.40992188 481.96101563 166.81984375 480.92203125 167.2421875 479.8515625 C169.81856543 473.31152622 172.11923762 466.7738027 174 460 C174.66 460 175.32 460 176 460 C176.103125 458.845 176.20625 457.69 176.3125 456.5 C176.82122492 451.92147569 177.59723782 447.40246874 178.4375 442.875 C178.62082886 441.87243164 178.62082886 441.87243164 178.80786133 440.84960938 C179.40751311 437.68575464 180.11130809 434.6264433 181.03125 431.5390625 C182.13181279 427.51845813 182.64371008 423.63691606 183.0625 419.5 C183.14048828 418.79875 183.21847656 418.0975 183.29882812 417.375 C184.65872647 404.60768996 185.23232895 391.83420416 185.25 379 C185.25200409 378.28008881 185.25400818 377.56017761 185.256073 376.81845093 C185.26663871 361.09085379 183.90985086 345.60628475 182 330 C181.84402344 328.70449219 181.68804688 327.40898438 181.52734375 326.07421875 C180.9347082 322.61937297 179.98199001 319.36422502 179 316 C178.50842146 313.83573135 178.05672046 311.66509002 177.60498047 309.4921875 C176.20841646 302.78640712 174.66481193 296.5446931 171.8828125 290.2578125 C170.33866265 286.30861509 169.67473262 282.17268857 169 278 C168.34 278 167.68 278 167 278 C166.74605469 277.19175781 166.49210937 276.38351562 166.23046875 275.55078125 C165.88628906 274.48214844 165.54210938 273.41351562 165.1875 272.3125 C164.85105469 271.25675781 164.51460937 270.20101563 164.16796875 269.11328125 C163.04092552 266.10908909 161.68280299 263.72121557 160 261 C158.68778841 258.43696894 157.44477108 255.84034373 156.1875 253.25 C153.53900782 247.85435593 150.77805227 242.76542924 147.2265625 237.89453125 C145.80227619 235.69459857 144.90661658 233.45294861 144 231 C143.34 231 142.68 231 142 231 C140.8615456 229.17157323 139.72877531 227.33941906 138.62109375 225.4921875 C134.19755499 218.69166285 128.73770988 212.7016803 123 207 C121.55265883 205.38375905 120.11506251 203.75873698 118.6875 202.125 C114.72839983 197.69896276 110.56769788 193.78354374 106 190 C104.6078125 188.7934375 104.6078125 188.7934375 103.1875 187.5625 C99.39636085 184.40321738 95.32226512 181.61342059 91.29296875 178.76953125 C89 177 89 177 88 175 C86.38638843 174.02773314 84.73272917 173.12142392 83.0625 172.25 C79.40368025 170.30801105 75.82880197 168.31371857 72.3125 166.125 C62.41956337 160.12928083 51.86538754 154.97004545 41 151 C41 150.34 41 149.68 41 149 C39.2984375 148.6596875 39.2984375 148.6596875 37.5625 148.3125 C32.88662785 147.28159905 28.33185745 145.94083209 23.75 144.5625 C16.55416474 142.40040844 9.35053818 140.57237599 2 139 C2 138.34 2 137.68 2 137 C1.34 137 0.68 137 0 137 C0 91.79 0 46.58 0 0 Z " fill="#FFFFFF" transform="translate(1427,801)"/>
<path d="M0 0 C41.58 0 83.16 0 126 0 C126 36.96 126 73.92 126 112 C84.42 112 42.84 112 0 112 C0 75.04 0 38.08 0 0 Z " fill="#FFFFFF" transform="translate(1236,1119)"/>
<path d="M0 0 C41.25 0 82.5 0 125 0 C125 36.96 125 73.92 125 112 C83.75 112 42.5 112 0 112 C0 75.04 0 38.08 0 0 Z " fill="#FFFFFF" transform="translate(1427,1119)"/>
<path d="" fill="#FFFFFF" transform="translate(0,0)"/>
</svg>
