<?xml version="1.0" encoding="UTF-8"?>
<svg version="1.1" xmlns="http://www.w3.org/2000/svg" width="102" height="102">
<path d="M0 0 C1.47668858 0.0133035 2.95331108 0.03716415 4.4296875 0.0703125 C5.18378906 0.07933594 5.93789063 0.08835938 6.71484375 0.09765625 C8.57826004 0.1212438 10.44151343 0.15711531 12.3046875 0.1953125 C12.3046875 1.8453125 12.3046875 3.4953125 12.3046875 5.1953125 C9.6646875 5.1953125 7.0246875 5.1953125 4.3046875 5.1953125 C4.3046875 12.4553125 4.3046875 19.7153125 4.3046875 27.1953125 C6.9446875 27.1953125 9.5846875 27.1953125 12.3046875 27.1953125 C12.3046875 28.8453125 12.3046875 30.4953125 12.3046875 32.1953125 C7.6846875 32.1953125 3.0646875 32.1953125 -1.6953125 32.1953125 C-2.0253125 24.9353125 -2.3553125 17.6753125 -2.6953125 10.1953125 C-4.3453125 13.1653125 -5.9953125 16.1353125 -7.6953125 19.1953125 C-6.7053125 19.5253125 -5.7153125 19.8553125 -4.6953125 20.1953125 C-4.6953125 21.5153125 -4.6953125 22.8353125 -4.6953125 24.1953125 C-5.7678125 24.2159375 -6.8403125 24.2365625 -7.9453125 24.2578125 C-11.62480391 24.78613095 -11.62480391 24.78613095 -13.05078125 26.8203125 C-14.02438045 28.56365259 -14.86903909 30.377511 -15.6953125 32.1953125 C-18.0053125 32.1953125 -20.3153125 32.1953125 -22.6953125 32.1953125 C-21.25638562 28.29762377 -19.42566094 24.86873787 -17.2890625 21.30859375 C-16.29712891 19.6544043 -16.29712891 19.6544043 -15.28515625 17.96679688 C-14.94210449 17.39920654 -14.59905273 16.83161621 -14.24560547 16.24682617 C-13.19386264 14.50541191 -12.14929614 12.75983968 -11.10546875 11.01367188 C-4.62498661 0.24444961 -4.62498661 0.24444961 0 0 Z " fill="#000000" transform="translate(46.6953125,34.8046875)"/>
<path d="M0 0 C3.95781786 0.27612683 5.69956508 0.74053348 8.75 3.375 C12.90668576 8.22446672 14.06117849 11.70881209 14 18 C13.17969183 22.51169492 11.54302522 25.85509482 8.125 28.9375 C5.21532999 30.85788221 3.42802638 31.69752708 0 32 C-0.3125 29.1875 -0.3125 29.1875 0 26 C2.375 24.4375 2.375 24.4375 5 23 C6.89441323 19.90005108 7.00323683 18.09224952 6.875 14.4375 C5.92078686 10.68880554 4.99526478 9.35990558 2 7 C1.34 6.67 0.68 6.34 0 6 C0 4.02 0 2.04 0 0 Z " fill="#000000" transform="translate(62,35)"/>
<path d="M0 0 C1.98 0 3.96 0 6 0 C6 1.65 6 3.3 6 5 C4.02 5 2.04 5 0 5 C0 3.35 0 1.7 0 0 Z " fill="#000000" transform="translate(53,48)"/>
<path d="M0 0 C1.65 0 3.3 0 5 0 C5 1.65 5 3.3 5 5 C3.35 5 1.7 5 0 5 C0 3.35 0 1.7 0 0 Z " fill="#000000" transform="translate(62,48)"/>
</svg>
